<svg width="30" height="30" viewBox="0 0 30 30" fill="none" xmlns="http://www.w3.org/2000/svg">
<rect width="30" height="30" rx="6" fill="#171A31"/>
<path d="M9.70966 21.6781C9.15737 21.6781 8.70966 21.2304 8.70966 20.6781V9.2258C8.70966 8.67351 9.15737 8.2258 9.70966 8.2258H10.7613C11.3136 8.2258 11.7613 8.67351 11.7613 9.2258V20.6781C11.7613 21.2304 11.3136 21.6781 10.7613 21.6781H9.70966ZM12.7494 15.4557C12.6702 15.2416 12.6666 15.0069 12.7392 14.7906L14.7139 8.90758C14.8507 8.50026 15.2323 8.2258 15.6619 8.2258H16.5648C17.247 8.2258 17.729 8.89394 17.5137 9.54134L15.7667 14.7948C15.6957 15.0086 15.6988 15.2401 15.7758 15.4518L17.5504 20.3366C17.7873 20.9888 17.3043 21.6781 16.6105 21.6781H15.7473C15.3288 21.6781 14.9546 21.4175 14.8094 21.025L12.7494 15.4557Z" fill="white"/>
<path d="M19.0116 20.3329C19.0116 19.7563 19.293 19.3272 19.8557 19.0453C20.101 18.93 20.3607 18.8723 20.6348 18.8723C21.2841 18.8723 21.7603 19.1222 22.0633 19.6218C22.1931 19.8396 22.258 20.0766 22.258 20.3329C22.258 20.9222 21.9695 21.345 21.3923 21.6012C21.147 21.7165 20.8945 21.7742 20.6348 21.7742C19.9711 21.7742 19.495 21.518 19.2064 21.0055C19.0766 20.7877 19.0116 20.5635 19.0116 20.3329Z" fill="white"/>
</svg>
